<svg id="Layer_1" enable-background="new 0 0 512.02 512.02" height="512" viewBox="0 0 512.02 512.02" width="512" xmlns="http://www.w3.org/2000/svg"><g><path d="m496.02 272c-8.836 0-16-7.164-16-16 0-123.514-100.486-224-224-224-8.836 0-16-7.164-16-16s7.164-16 16-16c68.381 0 132.668 26.628 181.02 74.98s74.98 112.639 74.98 181.02c0 8.836-7.164 16-16 16z"/><path d="m432.02 272c-8.836 0-16-7.164-16-16 0-88.224-71.776-160-160-160-8.836 0-16-7.164-16-16s7.164-16 16-16c105.869 0 192 86.131 192 192 0 8.836-7.164 16-16 16z"/><path d="m368.02 272c-8.836 0-16-7.164-16-16 0-52.935-43.065-96-96-96-8.836 0-16-7.164-16-16s7.164-16 16-16c70.58 0 128 57.42 128 128 0 8.836-7.164 16-16 16z"/><path d="m499.37 351.95-117.2-25.11c-5.3-1.14-10.83.49-14.66 4.33l-42.92 42.91c-80.48-40.48-146.17-106.17-186.65-186.65l42.91-42.92c3.84-3.83 5.47-9.36 4.33-14.66l-25.11-117.2c-1.58-7.38-8.1-12.65-15.65-12.65-24.25 0-47.22 5.74-68.26 17.05-19.74 10.62-37.02 26-49.98 44.5-12.91 18.42-21.43 39.8-24.66 61.81-3.45 23.51-1.02 46.93 7.22 69.61 25.65 70.6 67.42 136.13 120.8 189.51s118.91 95.15 189.51 120.8c16.02 5.82 32.41 8.74 48.94 8.74 6.87 0 13.77-.51 20.67-1.52 22.01-3.23 43.39-11.75 61.81-24.66 18.5-12.96 33.88-30.24 44.5-49.98 11.31-21.04 17.05-44.01 17.05-68.26 0-7.55-5.27-14.07-12.65-15.65zm-417.74-300.28c-.5.12-1 .25-1.49.38 13.857-9.739 29.782-16.14 46.843-18.738 2.607-.397 5.072 1.327 5.625 3.906l18.892 88.162c.355 1.658-.154 3.384-1.353 4.583l-10.098 10.098c-2.802 2.802-7.594 1.387-8.424-2.488l-13.515-63.043c-3.55-16.54-20.05-26.87-36.48-22.86zm229.53 358.47c-9.38 9.38-23.78 11.44-35.48 5.18-75.91-40.6-138.38-103.07-178.98-178.98-6.26-11.7-4.2-26.1 5.18-35.48l.003-.003c2.288-2.288 6.149-1.678 7.605 1.213 43.523 86.407 114.056 156.94 200.462 200.462 2.89 1.456 3.501 5.317 1.213 7.605zm148.81 21.74c.16-.57.3-1.14.44-1.72 3.95-16.35-6.47-32.72-22.92-36.25l-63.044-13.514c-3.874-.831-5.289-5.623-2.488-8.424l10.098-10.098c1.199-1.199 2.925-1.709 4.583-1.353l88.163 18.892c2.579.553 4.303 3.017 3.906 5.625-2.599 17.06-8.999 32.985-18.738 46.842z"/></g></svg>